<svg width="40" height="40" viewBox="0 0 40 40" fill="none" xmlns="http://www.w3.org/2000/svg" xmlns:xlink="http://www.w3.org/1999/xlink">
<path d="M17.15,6.433L15.44,5.396L15.434,5.406L17.15,6.433ZM3.033,30L1.318,28.972C1.312,28.981 1.307,28.991 1.301,29L3.033,30ZM5.883,35L5.861,37L5.883,37L5.883,35ZM34.117,35L34.117,37L34.139,37L34.117,35ZM36.967,30L38.699,29C38.693,28.991 38.688,28.981 38.682,28.972L36.967,30ZM22.85,6.433L24.566,5.406L24.56,5.396L22.85,6.433ZM20,4.829L20,2.829L20,4.829ZM15.434,5.406L1.318,28.972L4.749,31.028L18.866,7.461L15.434,5.406ZM1.301,29C0.836,29.806 0.589,30.721 0.587,31.652L4.587,31.663C4.587,31.43 4.649,31.202 4.765,31L1.301,29ZM0.587,31.652C0.584,32.583 0.825,33.499 1.286,34.308L4.762,32.327C4.646,32.125 4.586,31.896 4.587,31.663L0.587,31.652ZM1.286,34.308C1.748,35.117 2.413,35.791 3.215,36.264L5.244,32.816C5.043,32.698 4.877,32.529 4.762,32.327L1.286,34.308ZM3.215,36.264C4.018,36.736 4.93,36.99 5.861,37L5.905,33C5.673,32.998 5.444,32.934 5.244,32.816L3.215,36.264ZM5.883,37L34.117,37L34.117,33L5.883,33L5.883,37ZM34.139,37C35.07,36.99 35.982,36.736 36.785,36.264L34.756,32.816C34.556,32.934 34.327,32.998 34.095,33L34.139,37ZM36.785,36.264C37.587,35.791 38.252,35.117 38.713,34.308L35.238,32.327C35.123,32.529 34.957,32.698 34.756,32.816L36.785,36.264ZM38.713,34.308C39.175,33.499 39.416,32.583 39.413,31.652L35.413,31.663C35.414,31.896 35.354,32.125 35.238,32.327L38.713,34.308ZM39.413,31.652C39.411,30.721 39.164,29.806 38.699,29L35.235,31C35.351,31.202 35.413,31.43 35.413,31.663L39.413,31.652ZM38.682,28.972L24.566,5.406L21.134,7.461L35.251,31.028L38.682,28.972ZM24.56,5.396C24.085,4.612 23.415,3.964 22.616,3.515L20.654,7C20.854,7.113 21.021,7.275 21.14,7.471L24.56,5.396ZM22.616,3.515C21.818,3.065 20.917,2.829 20,2.829L20,6.829C20.229,6.829 20.454,6.888 20.654,7L22.616,3.515ZM20,2.829C19.083,2.829 18.182,3.065 17.383,3.515L19.346,7C19.546,6.888 19.771,6.829 20,6.829L20,2.829ZM17.383,3.515C16.585,3.964 15.915,4.612 15.44,5.396L18.86,7.471C18.979,7.275 19.146,7.113 19.346,7L17.383,3.515Z" fill="#7E96FF"/>
<line x1="18" y1="15" x2="18" y2="21.667" stroke="#7E96FF" stroke-width="2" stroke-miterlimit="3.999327" stroke-linecap="round" stroke-linejoin="round"/>
<line x1="20" y1="26.333" x2="20.017" y2="26.333" stroke="#7E96FF" stroke-width="2" stroke-miterlimit="3.999327" stroke-linecap="round" stroke-linejoin="round"/>
</svg>
