<svg width="684" height="144" viewBox="0 0 684 144" fill="none" xmlns="http://www.w3.org/2000/svg" xmlns:xlink="http://www.w3.org/1999/xlink">
<line x1="0.035" y1="-0.059" x2="684" y2="-0.059" stroke="#292929" stroke-opacity="0.08" stroke-width="1.018" stroke-miterlimit="3.999327" stroke-linecap="round" stroke-dasharray="2.036 2.036 "/>
<line x1="0.035" y1="46.76" x2="684" y2="46.76" stroke="#292929" stroke-opacity="0.08" stroke-width="1.018" stroke-miterlimit="3.999327" stroke-linecap="round" stroke-dasharray="2.036 2.036 "/>
<line x1="0.035" y1="93.579" x2="684" y2="93.579" stroke="#292929" stroke-opacity="0.08" stroke-width="1.018" stroke-miterlimit="3.999327" stroke-linecap="round" stroke-dasharray="2.036 2.036 "/>
<line x1="0.035" y1="140.397" x2="681.964" y2="140.397" stroke="#8099FF" stroke-width="1.018" stroke-miterlimit="3.999327" stroke-linecap="round" stroke-dasharray="2.036 2.036 "/>
<path d="M303.875,6.456C303.875,4.77 305.242,3.403 306.928,3.403L305.595,3.403C307.281,3.403 308.648,4.77 308.648,6.456L308.648,143.045L303.875,143.045Z" fill="#34B009" fill-opacity="0.5" stroke="#34B009" stroke-width="0.407" stroke-miterlimit="3.999327"/>
<path d="M303.341,26.404C303.341,24.718 304.708,23.351 306.395,23.351L306.395,23.351C308.081,23.351 309.448,24.718 309.448,26.404L309.448,143.452L303.341,143.452Z" fill="#8099FF"/>
<path d="M310.919,85.438C310.919,83.751 312.286,82.384 313.972,82.384L313.453,82.384C315.139,82.384 316.506,83.751 316.506,85.438L316.506,143.452L310.919,143.452Z" fill="#8099FF"/>
<path d="M331.407,128.185C331.407,126.499 332.774,125.132 334.461,125.132L333.942,125.132C335.628,125.132 336.995,126.499 336.995,128.185L336.995,143.452L331.407,143.452Z" fill="#8099FF"/>
<path d="M379.835,111.9C379.835,110.214 381.202,108.847 382.888,108.847L382.369,108.847C384.055,108.847 385.422,110.214 385.422,111.9L385.422,143.452L379.835,143.452Z" fill="#8099FF"/>
<path d="M387.285,77.295C387.285,75.608 388.653,74.241 390.339,74.241L389.82,74.241C391.506,74.241 392.873,75.608 392.873,77.295L392.873,143.452L387.285,143.452Z" fill="#8099FF"/>
<path d="M394.736,126.15C394.736,124.464 396.103,123.097 397.79,123.097L397.271,123.097C398.957,123.097 400.324,124.464 400.324,126.15L400.324,143.453L394.736,143.453Z" fill="#8099FF"/>
<path d="M402.186,132.257C402.186,130.57 403.553,129.203 405.239,129.203L404.72,129.203C406.407,129.203 407.774,130.57 407.774,132.257L407.774,143.453L402.186,143.453Z" fill="#8099FF"/>
<path d="M433.85,128.185C433.85,126.499 435.217,125.132 436.904,125.132L436.385,125.132C438.071,125.132 439.438,126.499 439.438,128.185L439.438,143.452L433.85,143.452Z" fill="#8099FF"/>
<path d="M467.378,128.185C467.378,126.499 468.745,125.132 470.432,125.132L469.913,125.132C471.599,125.132 472.966,126.499 472.966,128.185L472.966,143.452L467.378,143.452Z" fill="#8099FF"/>
<path d="M508.355,95.616C508.355,93.929 509.722,92.562 511.408,92.562L510.889,92.562C512.576,92.562 513.943,93.929 513.943,95.616L513.943,143.452L508.355,143.452Z" fill="#8099FF"/>
<path d="M515.806,130.219C515.806,128.533 517.173,127.166 518.859,127.166L518.34,127.166C520.026,127.166 521.393,128.533 521.393,130.219L521.393,143.451L515.806,143.451Z" fill="#8099FF"/>
<path d="M523.256,79.33C523.256,77.643 524.623,76.276 526.31,76.276L525.791,76.276C527.477,76.276 528.844,77.643 528.844,79.33L528.844,143.452L523.256,143.452Z" fill="#FF0000" fill-opacity="0.42"/>
<path d="M530.706,4.013C530.706,2.326 532.073,0.959 533.76,0.959L533.241,0.959C534.927,0.959 536.294,2.326 536.294,4.013L536.294,143.452L530.706,143.452Z" fill="#FF0000" fill-opacity="0.42"/>
<path d="M531.329,48.796C531.329,47.109 532.696,45.742 534.383,45.742L532.347,45.742C534.034,45.742 535.401,47.109 535.401,48.796L535.401,143.451L531.329,143.451Z" fill="#8099FF"/>
<path d="M538.157,63.045C538.157,61.359 539.524,59.992 541.21,59.992L540.691,59.992C542.378,59.992 543.745,61.359 543.745,63.045L543.745,143.452L538.157,143.452Z" fill="#FF0000" fill-opacity="0.42"/>
<path d="M537.436,89.508C537.436,87.822 538.803,86.455 540.49,86.455L540.49,86.455C542.176,86.455 543.543,87.822 543.543,89.508L543.543,143.452L537.436,143.452Z" fill="#8099FF"/>
<path d="M545.608,87.473C545.608,85.786 546.975,84.419 548.661,84.419L548.142,84.419C549.828,84.419 551.195,85.786 551.195,87.473L551.195,143.452L545.608,143.452Z" fill="#FF0000" fill-opacity="0.42"/>
<path d="M545.579,105.794C545.579,104.107 546.946,102.74 548.632,102.74L548.632,102.74C550.318,102.74 551.685,104.107 551.685,105.794L551.685,143.453L545.579,143.453Z" fill="#8099FF"/>
<path d="M523.187,99.686C523.187,98 524.554,96.633 526.24,96.633L526.24,96.633C527.927,96.633 529.294,98 529.294,99.686L529.294,143.452L523.187,143.452Z" fill="#8099FF"/>
<path d="M584.722,126.15C584.722,124.464 586.089,123.097 587.775,123.097L587.256,123.097C588.943,123.097 590.31,124.464 590.31,126.15L590.31,143.453L584.722,143.453Z" fill="#8099FF"/>
</svg>
