<svg width="34" height="22" viewBox="0 0 34 22" fill="none" xmlns="http://www.w3.org/2000/svg" xmlns:xlink="http://www.w3.org/1999/xlink">
<path d="M32,0L30,0C28.895,0 28,0.895 28,2L28,19.333C28,20.438 28.895,21.333 30,21.333L32,21.333C33.105,21.333 34,20.438 34,19.333L34,2C34,0.895 33.105,0 32,0ZM20.667,4.667L22.667,4.667C23.771,4.667 24.667,5.562 24.667,6.667L24.667,19.333C24.667,20.438 23.771,21.333 22.667,21.333L20.667,21.333C19.562,21.333 18.667,20.438 18.667,19.333L18.667,6.667C18.667,5.562 19.562,4.667 20.667,4.667ZM13.333,9.333L11.333,9.333C10.229,9.333 9.333,10.229 9.333,11.333L9.333,19.333C9.333,20.438 10.229,21.333 11.333,21.333L13.333,21.333C14.438,21.333 15.333,20.438 15.333,19.333L15.333,11.333C15.333,10.229 14.438,9.333 13.333,9.333ZM4,13.333L2,13.333C0.895,13.333 0,14.229 0,15.333L0,19.333C0,20.438 0.895,21.333 2,21.333L4,21.333C5.105,21.333 6,20.438 6,19.333L6,15.333C6,14.229 5.105,13.333 4,13.333Z" clip-rule="evenodd" fill-rule="evenodd" fill="#252727"/>
</svg>
