<svg width="34" height="34" viewBox="0 0 34 34" fill="none" xmlns="http://www.w3.org/2000/svg" xmlns:xlink="http://www.w3.org/1999/xlink">
<path d="M25.133,25.51C26.011,24.841 26.18,23.586 25.511,22.708C24.841,21.829 23.586,21.66 22.708,22.329L25.133,25.51ZM16,26.667L16,28.667C16.011,28.667 16.022,28.666 16.033,28.666L16,26.667ZM1.333,16L-0.429,15.054C-0.736,15.627 -0.746,16.313 -0.456,16.894L1.333,16ZM9.294,9.67C10.172,8.999 10.34,7.744 9.67,6.866C8.999,5.988 7.744,5.82 6.866,6.49L9.294,9.67ZM12.744,3.706C11.669,3.958 11.001,5.034 11.253,6.109C11.504,7.185 12.58,7.852 13.656,7.601L12.744,3.706ZM16,5.333L15.995,7.333L16,7.333L16,5.333ZM30.667,16L32.431,16.943C32.736,16.371 32.746,15.686 32.456,15.106L30.667,16ZM26.256,18.966C25.545,19.811 25.654,21.072 26.499,21.784C27.344,22.495 28.606,22.386 29.317,21.541L26.256,18.966ZM20.29,20.19C21.043,19.382 20.998,18.116 20.19,17.363C19.382,16.61 18.116,16.655 17.363,17.463L20.29,20.19ZM14.537,14.637C15.345,13.883 15.39,12.618 14.637,11.81C13.884,11.002 12.618,10.957 11.81,11.71L14.537,14.637ZM22.708,22.329C20.768,23.808 18.406,24.627 15.967,24.667L16.033,28.666C19.325,28.612 22.514,27.507 25.133,25.51L22.708,22.329ZM16,24.667C12.132,24.667 8.958,22.453 6.626,19.965C5.478,18.741 4.592,17.509 3.993,16.582C3.694,16.12 3.47,15.738 3.324,15.478C3.251,15.348 3.197,15.248 3.163,15.184C3.146,15.152 3.134,15.129 3.128,15.116C3.124,15.109 3.122,15.105 3.121,15.103C3.121,15.102 3.121,15.102 3.121,15.103C3.121,15.103 3.121,15.103 3.121,15.104C3.121,15.104 3.122,15.104 3.122,15.104C3.122,15.105 3.122,15.106 1.333,16C-0.456,16.894 -0.455,16.895 -0.455,16.896C-0.455,16.896 -0.454,16.897 -0.454,16.897C-0.453,16.898 -0.453,16.9 -0.452,16.901C-0.451,16.904 -0.449,16.908 -0.447,16.912C-0.442,16.92 -0.437,16.931 -0.43,16.945C-0.416,16.972 -0.397,17.009 -0.372,17.055C-0.323,17.148 -0.253,17.277 -0.162,17.439C0.019,17.762 0.285,18.214 0.632,18.752C1.325,19.824 2.355,21.259 3.708,22.701C6.376,25.547 10.534,28.667 16,28.667L16,24.667ZM3.096,16.946C4.619,14.106 6.733,11.625 9.294,9.67L6.866,6.49C3.852,8.792 1.364,11.712 -0.429,15.054L3.096,16.946ZM13.656,7.601C14.423,7.421 15.208,7.331 15.995,7.333L16.005,3.333C14.907,3.331 13.813,3.456 12.744,3.706L13.656,7.601ZM16,7.333C19.868,7.333 23.042,9.547 25.374,12.034C26.522,13.259 27.408,14.491 28.007,15.418C28.306,15.88 28.53,16.262 28.676,16.522C28.749,16.652 28.803,16.752 28.837,16.816C28.854,16.848 28.866,16.87 28.872,16.884C28.876,16.89 28.878,16.895 28.879,16.897C28.879,16.897 28.88,16.898 28.879,16.897C28.879,16.897 28.879,16.897 28.879,16.896C28.879,16.896 28.878,16.896 28.878,16.895C28.878,16.895 28.878,16.894 30.667,16C32.456,15.106 32.455,15.105 32.455,15.104C32.455,15.104 32.454,15.103 32.454,15.103C32.454,15.101 32.453,15.1 32.452,15.099C32.451,15.096 32.449,15.092 32.447,15.088C32.442,15.079 32.437,15.068 32.43,15.055C32.416,15.028 32.397,14.991 32.372,14.945C32.323,14.852 32.253,14.723 32.162,14.561C31.981,14.238 31.715,13.786 31.368,13.248C30.675,12.176 29.645,10.741 28.292,9.299C25.624,6.453 21.466,3.333 16,3.333L16,7.333ZM28.903,15.057C28.159,16.449 27.272,17.758 26.256,18.966L29.317,21.541C30.512,20.121 31.556,18.58 32.431,16.943L28.903,15.057ZM17.363,17.463C17.18,17.66 16.96,17.817 16.714,17.927L18.342,21.58C19.078,21.252 19.741,20.78 20.29,20.19L17.363,17.463ZM16.714,17.927C16.469,18.036 16.204,18.095 15.936,18.099L16.006,22.099C16.812,22.085 17.606,21.908 18.342,21.58L16.714,17.927ZM15.936,18.099C15.667,18.104 15.4,18.055 15.151,17.954L13.653,21.663C14.4,21.965 15.2,22.113 16.006,22.099L15.936,18.099ZM15.151,17.954C14.902,17.854 14.676,17.704 14.486,17.514L11.658,20.342C12.227,20.912 12.906,21.361 13.653,21.663L15.151,17.954ZM14.486,17.514C14.296,17.324 14.146,17.098 14.046,16.849L10.337,18.347C10.639,19.094 11.088,19.773 11.658,20.342L14.486,17.514ZM14.046,16.849C13.945,16.6 13.896,16.333 13.901,16.064L9.901,15.994C9.887,16.8 10.035,17.6 10.337,18.347L14.046,16.849ZM13.901,16.064C13.905,15.796 13.964,15.531 14.073,15.286L10.42,13.658C10.092,14.394 9.915,15.188 9.901,15.994L13.901,16.064ZM14.073,15.286C14.183,15.04 14.34,14.82 14.537,14.637L11.81,11.71C11.22,12.259 10.748,12.922 10.42,13.658L14.073,15.286Z" fill="#7F7F7F"/>
<path d="M2.748,-0.081C1.967,-0.862 0.7,-0.862 -0.081,-0.081C-0.862,0.7 -0.862,1.967 -0.081,2.748L2.748,-0.081ZM29.253,32.081C30.034,32.862 31.3,32.862 32.081,32.081C32.862,31.3 32.862,30.034 32.081,29.253L29.253,32.081ZM-0.081,2.748L29.253,32.081L32.081,29.253L2.748,-0.081L-0.081,2.748Z" fill="#7F7F7F"/>
</svg>
