<svg width="36" height="36" viewBox="0 0 36 36" fill="none" xmlns="http://www.w3.org/2000/svg" xmlns:xlink="http://www.w3.org/1999/xlink">
<path d="M32.708,15.062L31.5,15.062L31.5,15L18,15L18,21L26.477,21C25.241,24.493 21.917,27 18,27C13.03,27 9,22.97 9,18C9,13.03 13.03,9 18,9C20.294,9 22.381,9.865 23.971,11.279L28.214,7.036C25.535,4.54 21.951,3 18,3C9.716,3 3,9.716 3,18C3,26.284 9.716,33 18,33C26.284,33 33,26.284 33,18C33,16.994 32.896,16.012 32.708,15.062Z" fill="#FFC107"/>
<path d="M4.729,11.018L9.658,14.632C10.991,11.331 14.221,9 18,9C20.294,9 22.381,9.865 23.971,11.279L28.213,7.036C25.534,4.54 21.951,3 18,3C12.238,3 7.242,6.253 4.729,11.018Z" fill="#FF3D00"/>
<path d="M18,33C21.874,33 25.395,31.517 28.057,29.106L23.414,25.177C21.858,26.361 19.956,27.002 18,27C14.098,27 10.786,24.512 9.538,21.04L4.646,24.809C7.129,29.667 12.17,33 18,33Z" fill="#4CAF50"/>
<path d="M32.708,15.062L31.5,15.062L31.5,15L18,15L18,21L26.477,21C25.886,22.662 24.82,24.115 23.412,25.178L23.414,25.177L28.057,29.105C27.728,29.404 33,25.5 33,18C33,16.994 32.896,16.012 32.708,15.062Z" fill="#1976D2"/>
</svg>
