<svg width="120" height="120" viewBox="0 0 120 120" fill="none" xmlns="http://www.w3.org/2000/svg" xmlns:xlink="http://www.w3.org/1999/xlink">
<circle cx="60" cy="60" r="50" fill="url(#pf_0_1_411)"/>
<path d="M60,0C70.523,0 80.862,2.768 89.978,8.026C99.094,13.283 106.666,20.846 111.936,29.955C117.205,39.065 119.986,49.399 120,59.923C120.013,70.446 117.259,80.788 112.013,89.911C106.767,99.034 99.214,106.616 90.111,111.897C81.009,117.178 70.678,119.973 60.154,120C49.631,120.027 39.285,117.286 30.156,112.051C21.027,106.817 13.435,99.273 8.142,90.178L10.743,88.664C15.77,97.303 22.982,104.469 31.653,109.44C40.324,114.412 50.151,117.016 60.146,116.99C70.142,116.964 79.955,114.31 88.601,109.294C97.247,104.278 104.421,97.076 109.404,88.411C114.387,79.746 117.003,69.922 116.99,59.927C116.977,49.931 114.336,40.115 109.331,31.463C104.325,22.81 97.133,15.627 88.474,10.633C79.815,5.639 69.996,3.01 60,3.01L60,0Z" stroke="#89A1FF" stroke-width="1" stroke-miterlimit="3.999327"/>
<path d="M52.586,70.586C51.805,71.367 51.805,72.633 52.586,73.414C53.367,74.195 54.633,74.195 55.414,73.414L52.586,70.586ZM66,60L67.414,61.414C68.195,60.633 68.195,59.367 67.414,58.586L66,60ZM55.414,46.586C54.633,45.805 53.367,45.805 52.586,46.586C51.805,47.367 51.805,48.633 52.586,49.414L55.414,46.586ZM55.414,73.414L67.414,61.414L64.586,58.586L52.586,70.586L55.414,73.414ZM67.414,58.586L55.414,46.586L52.586,49.414L64.586,61.414L67.414,58.586Z" fill="#FFFFFF"/>
<defs>
<linearGradient id="pf_0_1_411" x1="10" y1="58.333" x2="110" y2="60" gradientUnits="userSpaceOnUse">
<stop stop-color="#DEE5FF"/>
<stop offset="1" stop-color="#809AFF"/>
</linearGradient>
</defs>
</svg>
