<svg width="60" height="60" viewBox="0 0 60 60" fill="none" xmlns="http://www.w3.org/2000/svg" xmlns:xlink="http://www.w3.org/1999/xlink">
<path d="M58.316,25.263C58.316,24.485 57.684,23.853 56.906,23.853C56.127,23.853 55.495,24.485 55.495,25.263L58.316,25.263ZM52.855,53.008L51.858,52.011L51.857,52.012L52.855,53.008ZM5.657,53.008L6.654,52.011L6.654,52.011L5.657,53.008ZM5.657,5.81L4.661,4.813L4.66,4.814L5.657,5.81ZM33.405,3.173C34.183,3.173 34.815,2.541 34.815,1.763C34.815,0.984 34.183,0.353 33.405,0.353L33.405,3.173ZM55.495,25.263L55.495,29.411L58.316,29.411L58.316,25.263L55.495,25.263ZM55.495,29.411C55.495,35.967 55.492,40.743 55.002,44.391C54.516,47.999 53.578,50.293 51.858,52.011L53.852,54.006C56.183,51.676 57.269,48.688 57.797,44.767C58.319,40.887 58.316,35.887 58.316,29.411L55.495,29.411ZM51.857,52.012C50.141,53.731 47.847,54.67 44.239,55.155C40.59,55.646 35.814,55.649 29.257,55.649L29.257,58.469C35.734,58.469 40.734,58.472 44.615,57.95C48.536,57.423 51.525,56.336 53.853,54.005L51.857,52.012ZM29.257,55.649C22.701,55.649 17.926,55.646 14.277,55.155C10.669,54.67 8.374,53.731 6.654,52.011L4.66,54.005C6.991,56.336 9.98,57.423 13.901,57.95C17.781,58.472 22.781,58.469 29.257,58.469L29.257,55.649ZM6.654,52.011C4.936,50.294 3.998,48.001 3.513,44.392C3.023,40.743 3.02,35.967 3.02,29.411L0.199,29.411C0.199,35.887 0.196,40.888 0.718,44.768C1.245,48.689 2.33,51.677 4.66,54.006L6.654,52.011ZM3.02,29.411C3.02,22.854 3.023,18.079 3.513,14.43C3.998,10.821 4.936,8.527 6.655,6.807L4.66,4.814C2.33,7.144 1.245,10.133 0.718,14.054C0.196,17.935 0.199,22.934 0.199,29.411L3.02,29.411ZM6.654,6.808C8.375,5.089 10.67,4.151 14.278,3.666C17.926,3.176 22.701,3.173 29.257,3.173L29.257,0.353C22.781,0.353 17.782,0.35 13.902,0.871C9.981,1.398 6.993,2.484 4.661,4.813L6.654,6.808ZM29.257,3.173L33.405,3.173L33.405,0.353L29.257,0.353L29.257,3.173Z" fill="#829DFF"/>
<path d="M14.35,34.036C13.852,34.635 13.932,35.524 14.531,36.022C15.129,36.521 16.018,36.44 16.517,35.842L14.35,34.036ZM20.402,28.978L21.485,29.881L21.485,29.881L20.402,28.978ZM28.898,28.978L27.814,29.881L27.815,29.881L28.898,28.978ZM29.617,29.841L30.7,28.938L30.7,28.938L29.617,29.841ZM38.113,29.841L37.03,28.938L37.03,28.938L38.113,29.841ZM44.165,24.783C44.663,24.184 44.583,23.295 43.984,22.797C43.386,22.298 42.497,22.379 41.998,22.977L44.165,24.783ZM16.517,35.842L21.485,29.881L19.319,28.075L14.35,34.036L16.517,35.842ZM21.485,29.881C22.497,28.665 23.162,27.873 23.723,27.366C24.256,26.885 24.5,26.844 24.648,26.844L24.648,24.024C23.503,24.024 22.608,24.573 21.833,25.273C21.087,25.947 20.275,26.927 19.318,28.076L21.485,29.881ZM24.648,26.844C24.799,26.844 25.044,26.885 25.576,27.366C26.138,27.873 26.802,28.665 27.814,29.881L29.982,28.076C29.025,26.927 28.213,25.947 27.466,25.273C26.69,24.572 25.795,24.024 24.648,24.024L24.648,26.844ZM27.815,29.881L28.534,30.744L30.7,28.938L29.981,28.075L27.815,29.881ZM28.533,30.743C29.49,31.892 30.302,32.872 31.049,33.546C31.824,34.247 32.72,34.795 33.866,34.795L33.866,31.975C33.716,31.975 33.471,31.934 32.938,31.453C32.377,30.946 31.712,30.154 30.7,28.938L28.533,30.743ZM33.866,34.795C35.012,34.795 35.907,34.246 36.682,33.546C37.428,32.872 38.24,31.892 39.197,30.743L37.03,28.938C36.018,30.154 35.353,30.946 34.792,31.453C34.259,31.934 34.014,31.975 33.866,31.975L33.866,34.795ZM39.196,30.744L44.165,24.783L41.998,22.977L37.03,28.938L39.196,30.744Z" fill="#829DFF"/>
<path d="M55.495,10.057C55.495,13.859 52.413,16.941 48.611,16.941L48.611,19.762C53.971,19.762 58.316,15.417 58.316,10.057L55.495,10.057ZM48.611,16.941C44.809,16.941 41.727,13.859 41.727,10.057L38.907,10.057C38.907,15.417 43.251,19.762 48.611,19.762L48.611,16.941ZM41.727,10.057C41.727,6.255 44.809,3.173 48.611,3.173L48.611,0.353C43.251,0.353 38.907,4.697 38.907,10.057L41.727,10.057ZM48.611,3.173C52.413,3.173 55.495,6.255 55.495,10.057L58.316,10.057C58.316,4.697 53.971,0.353 48.611,0.353L48.611,3.173Z" fill="#829DFF"/>
</svg>
