<svg width="58" height="60" viewBox="0 0 58 60" fill="none" xmlns="http://www.w3.org/2000/svg" xmlns:xlink="http://www.w3.org/1999/xlink">
<path d="M57.391,25.328C57.391,24.561 56.77,23.939 56.003,23.939C55.237,23.939 54.615,24.561 54.615,25.328L57.391,25.328ZM52.016,52.642L51.034,51.66L51.033,51.661L52.016,52.642ZM5.551,52.642L6.532,51.66L6.532,51.66L5.551,52.642ZM5.551,6.176L4.57,5.194L4.569,5.195L5.551,6.176ZM32.867,3.58C33.634,3.58 34.256,2.958 34.256,2.192C34.256,1.425 33.634,0.803 32.867,0.803L32.867,3.58ZM54.615,25.328L54.615,29.41L57.391,29.41L57.391,25.328L54.615,25.328ZM54.615,29.41C54.615,35.865 54.612,40.566 54.129,44.158C53.651,47.71 52.727,49.968 51.034,51.66L52.997,53.623C55.292,51.33 56.362,48.388 56.881,44.528C57.394,40.708 57.391,35.787 57.391,29.41L54.615,29.41ZM51.033,51.661C49.344,53.353 47.086,54.277 43.533,54.755C39.941,55.238 35.239,55.241 28.785,55.241L28.785,58.017C35.161,58.017 40.083,58.02 43.903,57.506C47.764,56.987 50.706,55.918 52.998,53.622L51.033,51.661ZM28.785,55.241C22.33,55.241 17.629,55.238 14.036,54.755C10.484,54.277 8.225,53.353 6.532,51.66L4.569,53.623C6.864,55.918 9.806,56.987 13.666,57.506C17.487,58.02 22.408,58.017 28.785,58.017L28.785,55.241ZM6.532,51.66C4.841,49.97 3.917,47.712 3.44,44.159C2.957,40.567 2.954,35.865 2.954,29.41L0.178,29.41C0.178,35.787 0.175,40.709 0.688,44.529C1.207,48.389 2.276,51.331 4.569,53.623L6.532,51.66ZM2.954,29.41C2.954,22.956 2.957,18.254 3.44,14.662C3.917,11.11 4.841,8.851 6.533,7.158L4.569,5.195C2.276,7.49 1.207,10.432 0.688,14.292C0.175,18.112 0.178,23.034 0.178,29.41L2.954,29.41ZM6.532,7.159C8.226,5.467 10.486,4.543 14.037,4.066C17.629,3.583 22.33,3.58 28.785,3.58L28.785,0.803C22.408,0.803 17.487,0.8 13.667,1.314C9.808,1.833 6.866,2.901 4.57,5.194L6.532,7.159ZM28.785,3.58L32.867,3.58L32.867,0.803L28.785,0.803L28.785,3.58Z" fill="#829DFF"/>
<path d="M14.109,33.964C13.618,34.553 13.698,35.428 14.287,35.919C14.875,36.41 15.751,36.33 16.242,35.741L14.109,33.964ZM20.067,28.984L21.133,29.873L21.133,29.873L20.067,28.984ZM28.431,28.984L27.364,29.873L27.364,29.873L28.431,28.984ZM29.139,29.833L30.205,28.945L30.205,28.945L29.139,29.833ZM37.503,29.833L36.437,28.945L36.436,28.945L37.503,29.833ZM43.461,24.854C43.951,24.265 43.872,23.39 43.283,22.899C42.694,22.408 41.819,22.487 41.328,23.076L43.461,24.854ZM16.242,35.741L21.133,29.873L19,28.095L14.109,33.964L16.242,35.741ZM21.133,29.873C22.13,28.676 22.784,27.896 23.337,27.397C23.861,26.923 24.102,26.883 24.247,26.883L24.247,24.107C23.119,24.107 22.238,24.648 21.476,25.337C20.741,26 19.942,26.965 19,28.096L21.133,29.873ZM24.247,26.883C24.395,26.883 24.637,26.924 25.161,27.397C25.714,27.897 26.368,28.676 27.364,29.873L29.498,28.096C28.556,26.965 27.756,26 27.021,25.336C26.258,24.647 25.376,24.107 24.247,24.107L24.247,26.883ZM27.364,29.873L28.072,30.722L30.205,28.945L29.497,28.096L27.364,29.873ZM28.072,30.722C29.014,31.853 29.813,32.818 30.548,33.481C31.312,34.171 32.193,34.711 33.322,34.711L33.322,31.935C33.174,31.935 32.933,31.894 32.409,31.42C31.855,30.921 31.202,30.141 30.205,28.945L28.072,30.722ZM33.322,34.711C34.45,34.711 35.331,34.17 36.094,33.481C36.828,32.818 37.628,31.853 38.57,30.722L36.436,28.945C35.44,30.141 34.786,30.921 34.233,31.421C33.708,31.895 33.468,31.935 33.322,31.935L33.322,34.711ZM38.569,30.722L43.461,24.854L41.328,23.076L36.437,28.945L38.569,30.722Z" fill="#829DFF"/>
<path d="M54.615,10.357C54.615,14.1 51.581,17.134 47.838,17.134L47.838,19.911C53.114,19.911 57.392,15.633 57.392,10.357L54.615,10.357ZM47.838,17.134C44.095,17.134 41.061,14.1 41.061,10.357L38.284,10.357C38.284,15.633 42.561,19.911 47.838,19.911L47.838,17.134ZM41.061,10.357C41.061,6.614 44.095,3.579 47.838,3.579L47.838,0.803C42.561,0.803 38.284,5.08 38.284,10.357L41.061,10.357ZM47.838,3.579C51.581,3.579 54.615,6.614 54.615,10.357L57.392,10.357C57.392,5.08 53.114,0.803 47.838,0.803L47.838,3.579Z" fill="#829DFF"/>
</svg>
