<svg width="48" height="22" viewBox="0 0 48 22" fill="none" xmlns="http://www.w3.org/2000/svg" xmlns:xlink="http://www.w3.org/1999/xlink">
<path d="M2.45,13.099L0.45,13.099L2.45,13.099ZM13.337,2.211L13.337,0.211L13.337,2.211ZM35.112,2.211L35.112,0.211L35.112,2.211ZM4.45,13.099C4.45,10.742 5.386,8.481 7.053,6.814L4.224,3.986C1.808,6.403 0.45,9.681 0.45,13.099L4.45,13.099ZM7.053,6.814C8.72,5.148 10.98,4.211 13.337,4.211L13.337,0.211C9.919,0.211 6.641,1.569 4.224,3.986L7.053,6.814ZM13.337,4.211L35.112,4.211L35.112,0.211L13.337,0.211L13.337,4.211ZM35.112,4.211C37.469,4.211 39.73,5.148 41.397,6.814L44.225,3.986C41.808,1.569 38.53,0.211 35.112,0.211L35.112,4.211ZM41.397,6.814C43.063,8.481 44,10.742 44,13.099L48,13.099C48,9.681 46.642,6.403 44.225,3.986L41.397,6.814ZM44,13.099C44,14.012 43.637,14.888 42.991,15.534L45.82,18.362C47.216,16.966 48,15.073 48,13.099L44,13.099ZM42.991,15.534C42.345,16.18 41.469,16.543 40.556,16.543L40.556,20.543C42.53,20.543 44.424,19.758 45.82,18.362L42.991,15.534ZM40.556,16.543L7.894,16.543L7.894,20.543L40.556,20.543L40.556,16.543ZM7.894,16.543C6.98,16.543 6.104,16.18 5.458,15.534L2.63,18.362C4.026,19.758 5.919,20.543 7.894,20.543L7.894,16.543ZM5.458,15.534C4.813,14.888 4.45,14.012 4.45,13.099L0.45,13.099C0.45,15.073 1.234,16.966 2.63,18.362L5.458,15.534Z" fill="#7F7F7F"/>
</svg>
