<svg width="52" height="54" viewBox="0 0 52 54" fill="none" xmlns="http://www.w3.org/2000/svg" xmlns:xlink="http://www.w3.org/1999/xlink">
<path d="M51.313,33.864L47.298,30.489C47.488,29.343 47.586,28.174 47.586,27.005C47.586,25.836 47.488,24.666 47.298,23.521L51.313,20.146C51.616,19.891 51.833,19.552 51.935,19.173C52.037,18.794 52.019,18.393 51.884,18.024L51.828,17.868C50.723,14.83 49.067,12.014 46.942,9.556L46.832,9.43C46.574,9.132 46.23,8.917 45.846,8.815C45.462,8.713 45.056,8.727 44.68,8.857L39.696,10.599C37.857,9.116 35.803,7.947 33.584,7.127L32.621,2.004C32.548,1.619 32.358,1.264 32.076,0.987C31.793,0.711 31.432,0.525 31.039,0.455L30.874,0.425C27.68,-0.142 24.32,-0.142 21.126,0.425L20.961,0.455C20.568,0.525 20.207,0.711 19.924,0.987C19.642,1.264 19.452,1.619 19.379,2.004L18.41,7.151C16.209,7.971 14.159,9.14 12.341,10.611L7.32,8.857C6.945,8.726 6.538,8.711 6.153,8.814C5.769,8.916 5.425,9.131 5.168,9.43L5.058,9.556C2.935,12.016 1.28,14.831 0.172,17.868L0.116,18.024C-0.159,18.778 0.067,19.622 0.687,20.146L4.751,23.557C4.561,24.69 4.469,25.848 4.469,26.999C4.469,28.156 4.561,29.313 4.751,30.44L0.687,33.852C0.384,34.107 0.167,34.446 0.065,34.825C-0.037,35.204 -0.019,35.605 0.116,35.973L0.172,36.13C1.281,39.168 2.924,41.97 5.058,44.442L5.168,44.568C5.426,44.866 5.77,45.08 6.154,45.183C6.538,45.285 6.944,45.27 7.32,45.141L12.341,43.387C14.168,44.863 16.209,46.033 18.41,46.846L19.379,51.994C19.452,52.379 19.642,52.734 19.924,53.01C20.207,53.287 20.568,53.473 20.961,53.543L21.126,53.573C24.35,54.142 27.65,54.142 30.874,53.573L31.039,53.543C31.432,53.473 31.793,53.287 32.076,53.01C32.358,52.734 32.548,52.379 32.621,51.994L33.584,46.871C35.802,46.053 37.867,44.88 39.696,43.399L44.68,45.141C45.055,45.271 45.462,45.286 45.847,45.184C46.231,45.082 46.575,44.867 46.832,44.568L46.942,44.442C49.076,41.964 50.719,39.168 51.828,36.13L51.884,35.973C52.159,35.232 51.933,34.388 51.313,33.864ZM42.945,24.232C43.098,25.142 43.178,26.077 43.178,27.011C43.178,27.945 43.098,28.879 42.945,29.789L42.54,32.206L47.12,36.058C46.426,37.63 45.549,39.119 44.508,40.494L38.819,38.511L36.894,40.066C35.429,41.247 33.798,42.175 32.033,42.826L29.697,43.688L28.599,49.535C26.868,49.727 25.12,49.727 23.388,49.535L22.291,43.676L19.974,42.802C18.226,42.151 16.602,41.223 15.149,40.048L13.224,38.487L7.498,40.488C6.456,39.108 5.585,37.619 4.886,36.052L9.515,32.164L9.116,29.753C8.969,28.855 8.889,27.927 8.889,27.011C8.889,26.089 8.963,25.167 9.116,24.269L9.515,21.858L4.886,17.97C5.579,16.397 6.456,14.914 7.498,13.534L13.224,15.535L15.149,13.974C16.602,12.799 18.226,11.871 19.974,11.22L22.297,10.358L23.394,4.499C25.117,4.306 26.877,4.306 28.606,4.499L29.703,10.346L32.039,11.208C33.798,11.859 35.435,12.787 36.9,13.968L38.825,15.523L44.514,13.54C45.557,14.92 46.427,16.409 47.126,17.976L42.547,21.828L42.945,24.232ZM26.006,15.8C20.047,15.8 15.216,20.55 15.216,26.408C15.216,32.267 20.047,37.016 26.006,37.016C31.965,37.016 36.796,32.267 36.796,26.408C36.796,20.55 31.965,15.8 26.006,15.8ZM30.862,31.182C30.225,31.81 29.468,32.308 28.635,32.647C27.801,32.986 26.908,33.16 26.006,33.159C24.173,33.159 22.45,32.453 21.151,31.182C20.512,30.556 20.006,29.812 19.66,28.992C19.315,28.173 19.138,27.295 19.14,26.408C19.14,24.606 19.857,22.912 21.151,21.635C22.45,20.357 24.173,19.658 26.006,19.658C27.839,19.658 29.562,20.357 30.862,21.635C31.5,22.261 32.007,23.005 32.352,23.824C32.697,24.643 32.874,25.521 32.872,26.408C32.872,28.21 32.155,29.904 30.862,31.182Z" fill="#F5F5F5"/>
</svg>
