<svg width="60" height="54" viewBox="0 0 60 54" fill="none" xmlns="http://www.w3.org/2000/svg" xmlns:xlink="http://www.w3.org/1999/xlink">
<path d="M16.664,5.948C17.402,2.326 20.626,-0.237 24.317,-0.237L33.352,-0.237C37.043,-0.237 40.264,2.326 41.005,5.948C41.087,6.346 41.3,6.706 41.611,6.969C41.922,7.232 42.312,7.382 42.719,7.396L42.81,7.396C46.689,7.568 49.67,8.043 52.158,9.677C53.726,10.706 55.075,12.027 56.126,13.573C57.433,15.492 58.009,17.698 58.285,20.363C58.556,22.97 58.556,26.236 58.556,30.372L58.556,30.607C58.556,34.743 58.556,38.011 58.285,40.615C58.009,43.281 57.433,45.487 56.126,47.409C55.072,48.955 53.724,50.279 52.158,51.304C50.215,52.579 47.983,53.143 45.279,53.411C42.631,53.676 39.31,53.676 35.091,53.676L22.578,53.676C18.358,53.676 15.038,53.676 12.389,53.411C9.685,53.143 7.454,52.581 5.51,51.304C3.945,50.278 2.596,48.953 1.543,47.406C0.235,45.487 -0.34,43.281 -0.616,40.615C-0.887,38.011 -0.887,34.743 -0.887,30.607L-0.887,30.372C-0.887,26.236 -0.887,22.97 -0.616,20.363C-0.34,17.698 0.235,15.492 1.543,13.573C2.596,12.025 3.945,10.701 5.51,9.675C7.999,8.043 10.979,7.568 14.858,7.399L14.905,7.396L14.949,7.396C15.356,7.382 15.747,7.232 16.057,6.969C16.368,6.706 16.582,6.346 16.664,5.948ZM24.317,3.91C22.547,3.91 21.062,5.135 20.728,6.774C20.189,9.428 17.833,11.519 14.999,11.544C11.272,11.709 9.276,12.166 7.783,13.144C6.674,13.872 5.719,14.811 4.971,15.906C4.208,17.026 3.749,18.461 3.506,20.792C3.263,23.158 3.26,26.211 3.26,30.491C3.26,34.771 3.26,37.82 3.509,40.187C3.749,42.518 4.208,43.952 4.974,45.075C5.715,46.164 6.669,47.104 7.786,47.837C8.939,48.592 10.415,49.048 12.801,49.286C15.218,49.526 18.331,49.529 22.691,49.529L34.978,49.529C39.335,49.529 42.448,49.529 44.867,49.286C47.253,49.048 48.73,48.595 49.883,47.837C51,47.104 51.956,46.164 52.697,45.072C53.46,43.952 53.919,42.518 54.163,40.187C54.406,37.82 54.409,34.768 54.409,30.491C54.409,26.211 54.409,23.158 54.16,20.792C53.919,18.461 53.46,17.026 52.695,15.906C51.948,14.809 50.992,13.87 49.883,13.142C48.395,12.166 46.399,11.709 42.667,11.544C39.835,11.516 37.48,9.431 36.941,6.774C36.764,5.957 36.31,5.225 35.656,4.703C35.002,4.181 34.188,3.901 33.352,3.91L24.317,3.91ZM28.834,23.263C27.184,23.263 25.602,23.919 24.435,25.085C23.269,26.252 22.613,27.834 22.613,29.484C22.613,31.134 23.269,32.716 24.435,33.883C25.602,35.05 27.184,35.705 28.834,35.705C30.484,35.705 32.066,35.05 33.233,33.883C34.4,32.716 35.055,31.134 35.055,29.484C35.055,27.834 34.4,26.252 33.233,25.085C32.066,23.919 30.484,23.263 28.834,23.263ZM18.466,29.484C18.466,26.734 19.559,24.097 21.503,22.153C23.447,20.209 26.084,19.116 28.834,19.116C31.584,19.116 34.221,20.209 36.166,22.153C38.11,24.097 39.202,26.734 39.202,29.484C39.202,32.234 38.11,34.871 36.166,36.816C34.221,38.76 31.584,39.852 28.834,39.852C26.084,39.852 23.447,38.76 21.503,36.816C19.559,34.871 18.466,32.234 18.466,29.484ZM43.35,21.19C43.35,20.64 43.568,20.112 43.957,19.724C44.346,19.335 44.873,19.116 45.423,19.116L48.188,19.116C48.738,19.116 49.265,19.335 49.654,19.724C50.043,20.112 50.262,20.64 50.262,21.19C50.262,21.74 50.043,22.267 49.654,22.656C49.265,23.045 48.738,23.263 48.188,23.263L45.423,23.263C44.873,23.263 44.346,23.045 43.957,22.656C43.568,22.267 43.35,21.74 43.35,21.19Z" clip-rule="evenodd" fill-rule="evenodd" fill="#7F7F7F"/>
</svg>
