<svg width="14" height="20" viewBox="0 0 14 20" fill="none" xmlns="http://www.w3.org/2000/svg" xmlns:xlink="http://www.w3.org/1999/xlink">
<path d="M11.063,19.171C11.71,19.689 12.654,19.584 13.171,18.937C13.689,18.29 13.584,17.346 12.937,16.829L11.063,19.171ZM2,10L1.063,8.829C0.707,9.113 0.5,9.544 0.5,10C0.5,10.456 0.707,10.887 1.063,11.171L2,10ZM12.937,3.171C13.584,2.654 13.689,1.71 13.171,1.063C12.654,0.416 11.71,0.311 11.063,0.829L12.937,3.171ZM12.937,16.829L2.937,8.829L1.063,11.171L11.063,19.171L12.937,16.829ZM2.937,11.171L12.937,3.171L11.063,0.829L1.063,8.829L2.937,11.171Z" transform="rotate(360 7 10)" fill="#2C2B2B"/>
</svg>
