<svg width="54" height="54" viewBox="0 0 54 54" fill="none" xmlns="http://www.w3.org/2000/svg" xmlns:xlink="http://www.w3.org/1999/xlink">
<path d="M47.684,21.323C47.684,20.782 47.469,20.262 47.086,19.88C46.703,19.497 46.184,19.282 45.642,19.282C45.101,19.282 44.582,19.497 44.199,19.88C43.816,20.262 43.601,20.782 43.601,21.323L47.684,21.323ZM9.577,21.323C9.577,20.782 9.362,20.262 8.98,19.88C8.597,19.497 8.077,19.282 7.536,19.282C6.995,19.282 6.475,19.497 6.093,19.88C5.71,20.262 5.495,20.782 5.495,21.323L9.577,21.323ZM49.643,28.209C49.83,28.41 50.056,28.571 50.306,28.682C50.557,28.794 50.827,28.854 51.101,28.859C51.375,28.864 51.647,28.813 51.902,28.711C52.156,28.608 52.387,28.455 52.58,28.261C52.774,28.067 52.927,27.837 53.03,27.582C53.132,27.328 53.183,27.056 53.178,26.782C53.173,26.508 53.113,26.237 53.002,25.987C52.89,25.737 52.729,25.511 52.529,25.324L49.643,28.209ZM26.589,2.27L28.032,0.827C27.649,0.445 27.13,0.23 26.589,0.23C26.048,0.23 25.529,0.445 25.147,0.827L26.589,2.27ZM0.65,25.324C0.449,25.511 0.288,25.737 0.177,25.987C0.065,26.237 0.005,26.508 0,26.782C-0.005,27.056 0.046,27.328 0.149,27.582C0.251,27.837 0.404,28.067 0.598,28.261C0.792,28.455 1.023,28.608 1.277,28.711C1.531,28.813 1.803,28.864 2.077,28.859C2.352,28.854 2.622,28.794 2.872,28.682C3.123,28.571 3.348,28.41 3.535,28.209L0.65,25.324ZM12.98,53.305L40.199,53.305L40.199,49.222L12.98,49.222L12.98,53.305ZM47.684,45.82L47.684,21.323L43.601,21.323L43.601,45.82L47.684,45.82ZM9.577,45.82L9.577,21.323L5.495,21.323L5.495,45.82L9.577,45.82ZM52.529,25.324L28.032,0.827L25.147,3.713L49.643,28.209L52.529,25.324ZM25.147,0.827L0.65,25.324L3.535,28.209L28.032,3.713L25.147,0.827ZM40.199,53.305C42.184,53.305 44.088,52.517 45.491,51.113C46.895,49.709 47.684,47.805 47.684,45.82L43.601,45.82C43.601,47.698 42.077,49.222 40.199,49.222L40.199,53.305ZM12.98,49.222C11.102,49.222 9.577,47.698 9.577,45.82L5.495,45.82C5.495,47.805 6.283,49.709 7.687,51.113C9.091,52.517 10.995,53.305 12.98,53.305L12.98,49.222Z" fill="#7F7F7F"/>
</svg>
