<svg width="54" height="54" viewBox="0 0 54 54" fill="none" xmlns="http://www.w3.org/2000/svg" xmlns:xlink="http://www.w3.org/1999/xlink">
<path d="M27,54C23.265,54 19.755,53.291 16.47,51.872C13.185,50.454 10.327,48.531 7.898,46.102C5.468,43.673 3.544,40.815 2.128,37.53C0.711,34.245 0.002,30.735 0,27C0,23.265 0.709,19.755 2.128,16.47C3.546,13.185 5.469,10.328 7.898,7.898C10.327,5.467 13.185,3.544 16.47,2.128C19.755,0.711 23.265,0.002 27,0L29.7,0L29.7,22.342C30.51,22.837 31.162,23.479 31.657,24.268C32.153,25.056 32.4,25.967 32.4,27C32.4,28.485 31.871,29.757 30.812,30.815C29.754,31.873 28.483,32.402 27,32.4C25.515,32.4 24.243,31.871 23.185,30.812C22.126,29.754 21.598,28.483 21.6,27C21.6,25.965 21.847,25.042 22.342,24.233C22.837,23.422 23.49,22.792 24.3,22.342L24.3,16.537C21.96,17.168 20.025,18.439 18.495,20.353C16.965,22.266 16.2,24.482 16.2,27C16.2,29.97 17.258,32.512 19.372,34.627C21.487,36.742 24.03,37.8 27,37.8C29.97,37.8 32.512,36.742 34.627,34.627C36.742,32.512 37.8,29.97 37.8,27C37.8,25.38 37.473,23.883 36.82,22.51C36.166,21.136 35.278,19.933 34.155,18.9L38.002,15.053C39.577,16.537 40.837,18.304 41.782,20.353C42.727,22.401 43.2,24.617 43.2,27C43.2,31.5 41.625,35.325 38.475,38.475C35.325,41.625 31.5,43.2 27,43.2C22.5,43.2 18.675,41.625 15.525,38.475C12.375,35.325 10.8,31.5 10.8,27C10.8,22.95 12.082,19.428 14.648,16.435C17.213,13.441 20.43,11.631 24.3,11.003L24.3,5.535C18.945,6.21 14.456,8.572 10.832,12.622C7.209,16.672 5.398,21.465 5.4,27C5.4,33.03 7.492,38.137 11.677,42.322C15.863,46.507 20.97,48.6 27,48.6C33.03,48.6 38.137,46.507 42.322,42.322C46.507,38.137 48.6,33.03 48.6,27C48.6,23.895 47.993,20.992 46.778,18.293C45.562,15.592 43.897,13.253 41.782,11.273L45.63,7.425C48.195,9.9 50.232,12.814 51.74,16.168C53.248,19.521 54.002,23.132 54,27C54,30.735 53.291,34.245 51.872,37.53C50.454,40.815 48.531,43.673 46.102,46.102C43.673,48.532 40.815,50.457 37.53,51.875C34.245,53.293 30.735,54.002 27,54Z" fill="#F5F5F5"/>
</svg>
