<svg width="48" height="22" viewBox="0 0 48 22" fill="none" xmlns="http://www.w3.org/2000/svg" xmlns:xlink="http://www.w3.org/1999/xlink">
<path d="M1.764,13.346L-0.236,13.346L1.764,13.346ZM12.823,2.287L12.823,0.287L12.823,2.287ZM34.941,2.287L34.941,0.287L34.941,2.287ZM3.764,13.346C3.764,10.944 4.718,8.639 6.417,6.94L3.589,4.112C1.139,6.561 -0.236,9.883 -0.236,13.346L3.764,13.346ZM6.417,6.94C8.116,5.242 10.42,4.287 12.823,4.287L12.823,0.287C9.359,0.287 6.038,1.663 3.589,4.112L6.417,6.94ZM12.823,4.287L34.941,4.287L34.941,0.287L12.823,0.287L12.823,4.287ZM34.941,4.287C37.344,4.287 39.648,5.242 41.347,6.94L44.176,4.112C41.726,1.663 38.405,0.287 34.941,0.287L34.941,4.287ZM41.347,6.94C43.046,8.639 44.001,10.944 44.001,13.346L48.001,13.346C48.001,9.883 46.625,6.561 44.176,4.112L41.347,6.94ZM44.001,13.346C44.001,14.282 43.629,15.18 42.967,15.842L45.795,18.671C47.207,17.258 48.001,15.343 48.001,13.346L44.001,13.346ZM42.967,15.842C42.305,16.504 41.407,16.876 40.471,16.876L40.471,20.876C42.468,20.876 44.383,20.083 45.795,18.671L42.967,15.842ZM40.471,16.876L7.293,16.876L7.293,20.876L40.471,20.876L40.471,16.876ZM7.293,16.876C6.357,16.876 5.459,16.504 4.797,15.842L1.969,18.671C3.381,20.083 5.296,20.876 7.293,20.876L7.293,16.876ZM4.797,15.842C4.135,15.18 3.764,14.282 3.764,13.346L-0.236,13.346C-0.236,15.343 0.557,17.258 1.969,18.671L4.797,15.842Z" fill="#7F7F7F"/>
</svg>
