<svg width="60" height="54" viewBox="0 0 60 54" fill="none" xmlns="http://www.w3.org/2000/svg" xmlns:xlink="http://www.w3.org/1999/xlink">
<path d="M17.355,6.28C18.082,2.715 21.256,0.192 24.889,0.192L33.784,0.192C37.418,0.192 40.589,2.715 41.318,6.28C41.399,6.673 41.609,7.027 41.915,7.286C42.221,7.545 42.605,7.693 43.006,7.707L43.096,7.707C46.915,7.876 49.849,8.344 52.298,9.952C53.842,10.965 55.17,12.266 56.204,13.787C57.492,15.676 58.058,17.848 58.33,20.472C58.597,23.039 58.597,26.254 58.597,30.325L58.597,30.557C58.597,34.629 58.597,37.846 58.33,40.41C58.058,43.034 57.492,45.206 56.204,47.098C55.167,48.62 53.84,49.923 52.298,50.933C50.385,52.188 48.188,52.743 45.526,53.007C42.919,53.268 39.65,53.268 35.496,53.268L23.177,53.268C19.024,53.268 15.755,53.268 13.147,53.007C10.485,52.743 8.289,52.19 6.375,50.933C4.834,49.922 3.506,48.618 2.469,47.095C1.182,45.206 0.616,43.034 0.343,40.41C0.077,37.846 0.077,34.629 0.077,30.557L0.077,30.325C0.077,26.254 0.077,23.039 0.343,20.472C0.616,17.848 1.182,15.676 2.469,13.787C3.506,12.264 4.834,10.96 6.375,9.95C8.825,8.344 11.759,7.876 15.578,7.709L15.624,7.707L15.668,7.707C16.068,7.693 16.452,7.545 16.758,7.286C17.065,7.027 17.275,6.673 17.355,6.28ZM24.889,4.274C23.147,4.274 21.686,5.48 21.356,7.094C20.825,9.707 18.506,11.765 15.717,11.79C12.047,11.953 10.082,12.402 8.612,13.366C7.521,14.082 6.58,15.006 5.844,16.085C5.093,17.187 4.641,18.6 4.402,20.894C4.162,23.224 4.159,26.229 4.159,30.443C4.159,34.656 4.159,37.658 4.404,39.988C4.641,42.283 5.093,43.695 5.847,44.8C6.577,45.873 7.516,46.798 8.615,47.52C9.75,48.263 11.204,48.712 13.553,48.946C15.932,49.183 18.996,49.185 23.289,49.185L35.385,49.185C39.674,49.185 42.739,49.185 45.121,48.946C47.47,48.712 48.923,48.265 50.058,47.52C51.158,46.798 52.1,45.873 52.829,44.798C53.58,43.695 54.032,42.283 54.272,39.988C54.511,37.658 54.514,34.653 54.514,30.443C54.514,26.229 54.514,23.224 54.269,20.894C54.032,18.6 53.58,17.187 52.827,16.085C52.092,15.004 51.151,14.08 50.058,13.363C48.594,12.402 46.629,11.953 42.954,11.79C40.167,11.762 37.848,9.71 37.317,7.094C37.143,6.289 36.696,5.569 36.053,5.055C35.409,4.542 34.608,4.266 33.784,4.274L24.889,4.274ZM29.337,23.328C27.713,23.328 26.155,23.973 25.006,25.121C23.858,26.27 23.213,27.828 23.213,29.452C23.213,31.076 23.858,32.634 25.006,33.782C26.155,34.931 27.713,35.576 29.337,35.576C30.961,35.576 32.519,34.931 33.667,33.782C34.816,32.634 35.461,31.076 35.461,29.452C35.461,27.828 34.816,26.27 33.667,25.121C32.519,23.973 30.961,23.328 29.337,23.328ZM19.13,29.452C19.13,26.745 20.205,24.148 22.119,22.234C24.033,20.32 26.63,19.245 29.337,19.245C32.044,19.245 34.64,20.32 36.554,22.234C38.468,24.148 39.544,26.745 39.544,29.452C39.544,32.159 38.468,34.755 36.554,36.669C34.64,38.583 32.044,39.659 29.337,39.659C26.63,39.659 24.033,38.583 22.119,36.669C20.205,34.755 19.13,32.159 19.13,29.452ZM43.627,21.286C43.627,20.745 43.842,20.225 44.225,19.843C44.607,19.46 45.127,19.245 45.668,19.245L48.39,19.245C48.931,19.245 49.451,19.46 49.833,19.843C50.216,20.225 50.431,20.745 50.431,21.286C50.431,21.828 50.216,22.347 49.833,22.73C49.451,23.112 48.931,23.328 48.39,23.328L45.668,23.328C45.127,23.328 44.607,23.112 44.225,22.73C43.842,22.347 43.627,21.828 43.627,21.286Z" clip-rule="evenodd" fill-rule="evenodd" fill="#7F7F7F"/>
</svg>
