<svg width="56" height="54" viewBox="0 0 56 54" fill="none" xmlns="http://www.w3.org/2000/svg" xmlns:xlink="http://www.w3.org/1999/xlink">
<path d="M48.436,21.228C48.436,20.678 48.217,20.15 47.828,19.761C47.44,19.373 46.912,19.154 46.362,19.154C45.812,19.154 45.285,19.373 44.896,19.761C44.507,20.15 44.289,20.678 44.289,21.228L48.436,21.228ZM9.729,21.228C9.729,20.678 9.51,20.15 9.121,19.761C8.732,19.373 8.205,19.154 7.655,19.154C7.105,19.154 6.578,19.373 6.189,19.761C5.8,20.15 5.581,20.678 5.581,21.228L9.729,21.228ZM50.426,28.223C50.616,28.426 50.845,28.59 51.1,28.703C51.354,28.816 51.629,28.877 51.907,28.882C52.185,28.887 52.462,28.836 52.72,28.732C52.978,28.627 53.213,28.472 53.41,28.275C53.607,28.078 53.762,27.844 53.866,27.586C53.971,27.327 54.022,27.051 54.017,26.772C54.012,26.494 53.951,26.219 53.838,25.965C53.724,25.711 53.561,25.482 53.357,25.292L50.426,28.223ZM27.009,1.874L28.474,0.409C28.085,0.02 27.558,-0.198 27.009,-0.198C26.459,-0.198 25.932,0.02 25.543,0.409L27.009,1.874ZM0.66,25.292C0.456,25.482 0.293,25.711 0.18,25.965C0.066,26.219 0.005,26.494 0,26.772C-0.005,27.051 0.047,27.327 0.151,27.586C0.255,27.844 0.41,28.078 0.607,28.275C0.804,28.472 1.039,28.627 1.297,28.732C1.555,28.836 1.832,28.887 2.11,28.882C2.389,28.877 2.663,28.816 2.918,28.703C3.172,28.59 3.401,28.426 3.591,28.223L0.66,25.292ZM13.185,53.714L40.833,53.714L40.833,49.567L13.185,49.567L13.185,53.714ZM48.436,46.111L48.436,21.228L44.289,21.228L44.289,46.111L48.436,46.111ZM9.729,46.111L9.729,21.228L5.581,21.228L5.581,46.111L9.729,46.111ZM53.357,25.292L28.474,0.409L25.543,3.339L50.426,28.223L53.357,25.292ZM25.543,0.409L0.66,25.292L3.591,28.223L28.474,3.339L25.543,0.409ZM40.833,53.714C42.849,53.714 44.783,52.913 46.209,51.487C47.635,50.061 48.436,48.127 48.436,46.111L44.289,46.111C44.289,48.019 42.74,49.567 40.833,49.567L40.833,53.714ZM13.185,49.567C11.277,49.567 9.729,48.019 9.729,46.111L5.581,46.111C5.581,48.127 6.382,50.061 7.808,51.487C9.234,52.913 11.168,53.714 13.185,53.714L13.185,49.567Z" fill="#7F7F7F"/>
</svg>
