<svg width="54" height="54" viewBox="0 0 54 54" fill="none" xmlns="http://www.w3.org/2000/svg" xmlns:xlink="http://www.w3.org/1999/xlink">
<path d="M45.9,5.4L40.5,5.4L40.5,2.7C40.5,1.984 40.216,1.297 39.709,0.791C39.203,0.284 38.516,0 37.8,0C37.084,0 36.397,0.284 35.891,0.791C35.384,1.297 35.1,1.984 35.1,2.7L35.1,5.4L18.9,5.4L18.9,2.7C18.9,1.984 18.616,1.297 18.109,0.791C17.603,0.284 16.916,0 16.2,0C15.484,0 14.797,0.284 14.291,0.791C13.784,1.297 13.5,1.984 13.5,2.7L13.5,5.4L8.1,5.4C5.952,5.4 3.891,6.253 2.372,7.772C0.853,9.291 0,11.352 0,13.5L0,45.9C0,48.048 0.853,50.109 2.372,51.628C3.891,53.147 5.952,54 8.1,54L45.9,54C48.048,54 50.109,53.147 51.628,51.628C53.147,50.109 54,48.048 54,45.9L54,13.5C54,11.352 53.147,9.291 51.628,7.772C50.109,6.253 48.048,5.4 45.9,5.4ZM48.6,45.9C48.6,46.616 48.316,47.303 47.809,47.809C47.303,48.316 46.616,48.6 45.9,48.6L8.1,48.6C7.384,48.6 6.697,48.316 6.191,47.809C5.684,47.303 5.4,46.616 5.4,45.9L5.4,27L48.6,27L48.6,45.9ZM48.6,21.6L5.4,21.6L5.4,13.5C5.4,12.784 5.684,12.097 6.191,11.591C6.697,11.084 7.384,10.8 8.1,10.8L13.5,10.8L13.5,13.5C13.5,14.216 13.784,14.903 14.291,15.409C14.797,15.916 15.484,16.2 16.2,16.2C16.916,16.2 17.603,15.916 18.109,15.409C18.616,14.903 18.9,14.216 18.9,13.5L18.9,10.8L35.1,10.8L35.1,13.5C35.1,14.216 35.384,14.903 35.891,15.409C36.397,15.916 37.084,16.2 37.8,16.2C38.516,16.2 39.203,15.916 39.709,15.409C40.216,14.903 40.5,14.216 40.5,13.5L40.5,10.8L45.9,10.8C46.616,10.8 47.303,11.084 47.809,11.591C48.316,12.097 48.6,12.784 48.6,13.5L48.6,21.6Z" fill="#F5F5F5"/>
</svg>
