<svg width="44" height="44" viewBox="0 0 44 44" fill="none" xmlns="http://www.w3.org/2000/svg" xmlns:xlink="http://www.w3.org/1999/xlink">
<path d="M35.619,33.498C35.033,32.912 34.084,32.912 33.498,33.498C32.912,34.084 32.912,35.033 33.498,35.619L35.619,33.498ZM41.259,43.381C41.845,43.966 42.795,43.966 43.381,43.381C43.966,42.795 43.966,41.845 43.381,41.259L41.259,43.381ZM33.498,35.619L41.259,43.381L43.381,41.259L35.619,33.498L33.498,35.619ZM38.58,21.104C38.58,30.832 30.721,38.708 21.041,38.708L21.041,41.708C32.388,41.708 41.58,32.479 41.58,21.104L38.58,21.104ZM21.041,38.708C11.358,38.708 3.5,30.831 3.5,21.107L0.5,21.107C0.5,32.479 9.692,41.708 21.041,41.708L21.041,38.708ZM3.5,21.107C3.5,11.374 11.358,3.5 21.039,3.5L21.039,0.5C9.692,0.5 0.5,9.727 0.5,21.107L3.5,21.107ZM21.039,3.5C30.721,3.5 38.58,11.377 38.58,21.104L41.58,21.104C41.58,9.729 32.388,0.5 21.039,0.5L21.039,3.5Z" fill="#FFFFFF"/>
</svg>
