<svg width="22" height="22" viewBox="0 0 22 22" fill="none" xmlns="http://www.w3.org/2000/svg" xmlns:xlink="http://www.w3.org/1999/xlink">
<path d="M16.39,11.158C16.39,14.563 13.63,17.323 10.225,17.323L10.225,21.323C15.839,21.323 20.39,16.772 20.39,11.158L16.39,11.158ZM10.225,17.323C6.819,17.323 4.059,14.563 4.059,11.158L0.059,11.158C0.059,16.772 4.61,21.323 10.225,21.323L10.225,17.323ZM4.059,11.158C4.059,7.753 6.819,4.992 10.225,4.992L10.225,0.992C4.61,0.992 0.059,5.543 0.059,11.158L4.059,11.158ZM10.225,4.992C13.63,4.992 16.39,7.753 16.39,11.158L20.39,11.158C20.39,5.543 15.839,0.992 10.225,0.992L10.225,4.992Z" fill="#7F7F7F"/>
</svg>
