<svg width="54" height="54" viewBox="0 0 54 54" fill="none" xmlns="http://www.w3.org/2000/svg" xmlns:xlink="http://www.w3.org/1999/xlink">
<path d="M48.42,21.46C48.42,20.91 48.202,20.381 47.813,19.992C47.425,19.602 46.897,19.383 46.347,19.383C45.798,19.383 45.27,19.602 44.882,19.992C44.493,20.381 44.275,20.91 44.275,21.46L48.42,21.46ZM9.725,21.46C9.725,20.91 9.507,20.381 9.118,19.992C8.73,19.602 8.202,19.383 7.653,19.383C7.103,19.383 6.575,19.602 6.187,19.992C5.798,20.381 5.58,20.91 5.58,21.46L9.725,21.46ZM50.41,28.467C50.6,28.671 50.829,28.835 51.083,28.948C51.338,29.062 51.612,29.123 51.89,29.128C52.169,29.132 52.445,29.081 52.703,28.977C52.962,28.872 53.196,28.717 53.393,28.52C53.59,28.322 53.745,28.087 53.849,27.829C53.953,27.57 54.005,27.293 54,27.014C53.995,26.735 53.934,26.46 53.821,26.206C53.707,25.951 53.544,25.721 53.34,25.531L50.41,28.467ZM27,2.075L28.465,0.607C28.076,0.218 27.549,0 27,0C26.451,0 25.924,0.218 25.535,0.607L27,2.075ZM0.66,25.531C0.456,25.721 0.293,25.951 0.179,26.206C0.066,26.46 0.005,26.735 0,27.014C-0.005,27.293 0.047,27.57 0.151,27.829C0.255,28.087 0.41,28.322 0.607,28.52C0.804,28.717 1.038,28.872 1.297,28.977C1.555,29.081 1.831,29.132 2.11,29.128C2.388,29.123 2.662,29.062 2.917,28.948C3.171,28.835 3.4,28.671 3.59,28.467L0.66,25.531ZM13.18,54L40.82,54L40.82,49.846L13.18,49.846L13.18,54ZM48.42,46.384L48.42,21.46L44.275,21.46L44.275,46.384L48.42,46.384ZM9.725,46.384L9.725,21.46L5.58,21.46L5.58,46.384L9.725,46.384ZM53.34,25.531L28.465,0.607L25.535,3.543L50.41,28.467L53.34,25.531ZM25.535,0.607L0.66,25.531L3.59,28.467L28.465,3.543L25.535,0.607ZM40.82,54C42.835,54 44.769,53.198 46.194,51.769C47.62,50.341 48.42,48.404 48.42,46.384L44.275,46.384C44.275,48.295 42.727,49.846 40.82,49.846L40.82,54ZM13.18,49.846C11.273,49.846 9.725,48.295 9.725,46.384L5.58,46.384C5.58,48.404 6.38,50.341 7.806,51.769C9.231,53.198 11.164,54 13.18,54L13.18,49.846Z" fill="#F5F5F5"/>
</svg>
