<svg width="22" height="22" viewBox="0 0 22 22" fill="none" xmlns="http://www.w3.org/2000/svg" xmlns:xlink="http://www.w3.org/1999/xlink">
<path d="M16.176,10.933C16.176,14.409 13.358,17.228 9.882,17.228L9.882,21.228C15.567,21.228 20.176,16.619 20.176,10.933L16.176,10.933ZM9.882,17.228C6.405,17.228 3.587,14.409 3.587,10.933L-0.413,10.933C-0.413,16.619 4.196,21.228 9.882,21.228L9.882,17.228ZM3.587,10.933C3.587,7.457 6.405,4.639 9.882,4.639L9.882,0.639C4.196,0.639 -0.413,5.248 -0.413,10.933L3.587,10.933ZM9.882,4.639C13.358,4.639 16.176,7.457 16.176,10.933L20.176,10.933C20.176,5.248 15.567,0.639 9.882,0.639L9.882,4.639Z" fill="#7F7F7F"/>
</svg>
